<svg xmlns="http://www.w3.org/2000/svg" xmlns:xlink="http://www.w3.org/1999/xlink" overflow="hidden" viewBox="402.19 293.85 613.53 660.49"><defs><filter id="fx0" x="-10%" y="-10%" width="120%" height="120%" filterUnits="userSpaceOnUse" primitiveUnits="userSpaceOnUse"><feComponentTransfer color-interpolation-filters="sRGB"><feFuncR type="discrete" tableValues="0 0"/><feFuncG type="discrete" tableValues="0 0"/><feFuncB type="discrete" tableValues="0 0"/><feFuncA type="linear" slope="0.4" intercept="0"/></feComponentTransfer><feGaussianBlur stdDeviation="6.11111 6.11111"/></filter><filter id="fx1" x="-10%" y="-10%" width="120%" height="120%" filterUnits="userSpaceOnUse" primitiveUnits="userSpaceOnUse"><feComponentTransfer color-interpolation-filters="sRGB"><feFuncR type="discrete" tableValues="0 0"/><feFuncG type="discrete" tableValues="0 0"/><feFuncB type="discrete" tableValues="0 0"/><feFuncA type="linear" slope="0.4" intercept="0"/></feComponentTransfer><feGaussianBlur stdDeviation="6.11111 6.11111"/></filter><clipPath id="clip2"><rect x="854" y="457" width="1322" height="1313"/></clipPath><clipPath id="clip3"><rect x="97" y="66" width="217" height="234"/></clipPath><clipPath id="clip4"><rect x="0" y="0" width="1311" height="1311"/></clipPath><clipPath id="clip5"><rect x="19" y="19" width="1272" height="1272"/></clipPath><clipPath id="clip6"><rect x="19" y="19" width="1272" height="1272"/></clipPath><clipPath id="clip7"><rect x="19" y="19" width="1272" height="1272"/></clipPath><clipPath id="clip8"><rect x="875" y="469" width="1273" height="1273"/></clipPath><clipPath id="clip9"><rect x="875" y="469" width="1273" height="1273"/></clipPath><clipPath id="clip10"><rect x="875" y="469" width="1273" height="1273"/></clipPath><clipPath id="clip11"><rect x="97" y="66" width="217" height="234"/></clipPath><clipPath id="clip12"><rect x="0" y="0" width="1311" height="1311"/></clipPath><clipPath id="clip13"><rect x="19" y="19" width="1272" height="1272"/></clipPath><clipPath id="clip14"><rect x="19" y="19" width="1272" height="1272"/></clipPath><clipPath id="clip15"><rect x="19" y="19" width="1272" height="1272"/></clipPath><clipPath id="clip16"><rect x="863" y="466" width="1271" height="1271"/></clipPath><clipPath id="clip17"><rect x="863" y="466" width="1271" height="1271"/></clipPath><clipPath id="clip18"><rect x="863" y="466" width="1271" height="1271"/></clipPath></defs><g clip-path="url(#clip2)" transform="translate(-854 -457)"><g clip-path="url(#clip3)" filter="url(#fx0)" transform="translate(866 460)"><g clip-path="url(#clip4)"><g clip-path="url(#clip5)"><g clip-path="url(#clip6)"><g clip-path="url(#clip7)"><path d="M481.11 900.698C458.658 917.753 436.568 934.546 414.477 951.339 413.956 950.997 413.436 950.656 412.915 950.315 493.305 734.871 575.387 520.06 655.086 304.569 658.551 304.988 658.424 307.336 659.008 308.892 680.561 366.348 701.982 423.853 723.554 481.302 742.439 531.594 761.491 581.823 780.446 632.089 782.633 637.886 784.846 643.685 786.718 649.587 788.236 654.373 790.808 655.258 795.61 654.035 834.834 644.041 874.113 634.266 913.391 624.488 941.043 617.604 968.713 610.793 996.399 604.048 998.2 603.609 1000.17 602.26 1003.72 604.68 817.808 683.84 642.984 780.454 481.11 900.698M603.365 646.023C600.575 653.576 597.763 661.121 595 668.685 591.245 678.965 587.457 689.234 583.843 699.564 582.864 702.362 580.805 705.497 583.499 708.279 585.944 710.802 588.933 709.007 591.687 708.422 592.495 708.251 593.296 708.045 594.093 707.828 627.14 698.819 660.212 689.896 693.216 680.733 701.671 678.385 710.501 677.095 719.116 672.761 698.493 615.34 677.985 558.241 657.477 501.143 656.766 501.22 656.055 501.296 655.343 501.373 638.101 549.277 620.859 597.181 603.365 646.023Z" fill="#203864"/><path d="M720.872 799.017C731.581 791.212 741.767 783.421 752.356 776.224 756.255 773.573 757.25 771.065 755.102 767.143 752.21 761.86 753.649 758.611 758.692 755.062 800.824 725.412 844.574 698.345 889.066 672.437 890.229 671.76 891.391 670.521 893.331 671.704 892.549 674.539 889.894 675.552 887.827 676.928 864.74 692.306 843.396 709.969 821.625 727.08 817.716 730.152 818.519 733.108 819.92 736.823 836.543 780.888 853.089 824.982 869.668 869.064 879.12 894.198 888.6 919.323 898.056 944.456 898.765 946.341 899.76 948.222 898.455 950.985 828.749 909.369 759.177 867.833 688.774 825.8 698.947 814.997 710.247 807.736 720.872 799.017Z" fill="#203864"/></g></g></g></g></g><g clip-path="url(#clip8)"><g clip-path="url(#clip9)"><g clip-path="url(#clip10)"><path d="M1337.39 1350.98C1314.94 1368.03 1292.84 1384.82 1270.75 1401.62 1270.23 1401.27 1269.71 1400.93 1269.19 1400.59 1349.58 1185.15 1431.66 970.338 1511.36 754.846 1514.83 755.265 1514.7 757.613 1515.28 759.169 1536.84 816.625 1558.26 874.131 1579.83 931.58 1598.72 981.871 1617.77 1032.1 1636.72 1082.37 1638.91 1088.16 1641.12 1093.96 1643 1099.86 1644.51 1104.65 1647.08 1105.54 1651.89 1104.31 1691.11 1094.32 1730.39 1084.54 1769.67 1074.77 1797.32 1067.88 1824.99 1061.07 1852.68 1054.32 1854.48 1053.89 1856.44 1052.54 1859.99 1054.96 1674.09 1134.12 1499.26 1230.73 1337.39 1350.98M1459.64 1096.3C1456.85 1103.85 1454.04 1111.4 1451.28 1118.96 1447.52 1129.24 1443.73 1139.51 1440.12 1149.84 1439.14 1152.64 1437.08 1155.77 1439.78 1158.56 1442.22 1161.08 1445.21 1159.28 1447.96 1158.7 1448.77 1158.53 1449.57 1158.32 1450.37 1158.11 1483.42 1149.1 1516.49 1140.17 1549.49 1131.01 1557.95 1128.66 1566.78 1127.37 1575.39 1123.04 1554.77 1065.62 1534.26 1008.52 1513.75 951.42 1513.04 951.497 1512.33 951.574 1511.62 951.651 1494.38 999.554 1477.14 1047.46 1459.64 1096.3Z" fill="#203864"/><path d="M1577.15 1249.29C1587.86 1241.49 1598.04 1233.7 1608.63 1226.5 1612.53 1223.85 1613.53 1221.34 1611.38 1217.42 1608.49 1212.14 1609.93 1208.89 1614.97 1205.34 1657.1 1175.69 1700.85 1148.62 1745.34 1122.71 1746.51 1122.04 1747.67 1120.8 1749.61 1121.98 1748.83 1124.82 1746.17 1125.83 1744.1 1127.21 1721.02 1142.58 1699.67 1160.25 1677.9 1177.36 1673.99 1180.43 1674.8 1183.39 1676.2 1187.1 1692.82 1231.17 1709.37 1275.26 1725.94 1319.34 1735.4 1344.48 1744.88 1369.6 1754.33 1394.73 1755.04 1396.62 1756.04 1398.5 1754.73 1401.26 1685.03 1359.65 1615.45 1318.11 1545.05 1276.08 1555.22 1265.27 1566.52 1258.01 1577.15 1249.29Z" fill="#203864"/></g></g></g><g clip-path="url(#clip11)" filter="url(#fx1)" transform="translate(853 456)"><g clip-path="url(#clip12)"><g clip-path="url(#clip13)"><g clip-path="url(#clip14)"><g clip-path="url(#clip15)"><path d="M481.109 900.698C458.659 917.754 436.567 934.546 414.478 951.338 413.956 950.997 413.436 950.656 412.915 950.314 493.306 734.871 575.387 520.06 655.086 304.57 658.551 304.988 658.424 307.336 659.007 308.891 680.561 366.348 701.982 423.854 723.554 481.302 742.439 531.594 761.492 581.824 780.446 632.089 782.633 637.887 784.846 643.685 786.718 649.586 788.236 654.373 790.808 655.259 795.61 654.035 834.833 644.042 874.113 634.266 913.391 624.488 941.043 617.604 968.713 610.794 996.399 604.048 998.2 603.609 1000.17 602.26 1003.72 604.681 817.809 683.84 642.984 780.455 481.109 900.698M603.365 646.023C600.575 653.576 597.762 661.121 595 668.685 591.246 678.965 587.458 689.234 583.843 699.564 582.864 702.363 580.805 705.498 583.499 708.278 585.943 710.802 588.933 709.007 591.687 708.422 592.495 708.251 593.296 708.045 594.093 707.828 627.14 698.819 660.211 689.896 693.216 680.733 701.67 678.385 710.501 677.095 719.117 672.761 698.493 615.34 677.985 558.241 657.477 501.143 656.766 501.22 656.054 501.297 655.343 501.373 638.102 549.277 620.86 597.181 603.365 646.023Z" fill="#8FAADC"/><path d="M720.873 799.017C731.581 791.212 741.766 783.421 752.356 776.224 756.255 773.573 757.25 771.065 755.102 767.143 752.21 761.86 753.65 758.611 758.693 755.062 800.824 725.412 844.575 698.345 889.066 672.437 890.229 671.759 891.392 670.522 893.332 671.704 892.549 674.54 889.895 675.551 887.827 676.929 864.739 692.305 843.397 709.969 821.625 727.08 817.716 730.152 818.519 733.109 819.92 736.822 836.543 780.888 853.089 824.982 869.668 869.064 879.12 894.198 888.6 919.323 898.056 944.456 898.765 946.341 899.76 948.222 898.454 950.985 828.749 909.369 759.177 867.832 688.774 825.8 698.947 814.996 710.247 807.735 720.873 799.017Z" fill="#8FAADC"/></g></g></g></g></g><g clip-path="url(#clip16)"><g clip-path="url(#clip17)"><g clip-path="url(#clip18)"><path d="M1324.39 1346.98C1301.94 1364.03 1279.84 1380.82 1257.75 1397.62 1257.23 1397.27 1256.71 1396.93 1256.19 1396.59 1336.58 1181.15 1418.66 966.337 1498.36 750.847 1501.83 751.265 1501.7 753.614 1502.28 755.169 1523.84 812.626 1545.26 870.131 1566.83 927.579 1585.72 977.872 1604.77 1028.1 1623.72 1078.37 1625.91 1084.16 1628.12 1089.96 1630 1095.86 1631.51 1100.65 1634.09 1101.54 1638.89 1100.31 1678.11 1090.32 1717.39 1080.54 1756.67 1070.77 1784.32 1063.88 1811.99 1057.07 1839.68 1050.32 1841.48 1049.89 1843.44 1048.54 1846.99 1050.96 1661.09 1130.12 1486.26 1226.73 1324.39 1346.98M1446.64 1092.3C1443.85 1099.85 1441.04 1107.4 1438.28 1114.96 1434.52 1125.24 1430.73 1135.51 1427.12 1145.84 1426.14 1148.64 1424.08 1151.78 1426.78 1154.56 1429.22 1157.08 1432.21 1155.28 1434.96 1154.7 1435.77 1154.53 1436.57 1154.32 1437.37 1154.11 1470.42 1145.1 1503.49 1136.17 1536.49 1127.01 1544.95 1124.66 1553.78 1123.37 1562.39 1119.04 1541.77 1061.62 1521.26 1004.52 1500.75 947.42 1500.04 947.497 1499.33 947.574 1498.62 947.651 1481.38 995.554 1464.14 1043.46 1446.64 1092.3Z" fill="#8FAADC"/><path d="M1564.15 1245.29C1574.86 1237.49 1585.04 1229.7 1595.63 1222.5 1599.53 1219.85 1600.53 1217.34 1598.38 1213.42 1595.49 1208.14 1596.93 1204.89 1601.97 1201.34 1644.1 1171.69 1687.85 1144.62 1732.34 1118.71 1733.51 1118.04 1734.67 1116.8 1736.61 1117.98 1735.83 1120.82 1733.17 1121.83 1731.1 1123.21 1708.02 1138.58 1686.67 1156.25 1664.9 1173.36 1660.99 1176.43 1661.8 1179.39 1663.2 1183.1 1679.82 1227.17 1696.37 1271.26 1712.95 1315.34 1722.4 1340.48 1731.88 1365.6 1741.33 1390.73 1742.04 1392.62 1743.04 1394.5 1741.73 1397.26 1672.03 1355.65 1602.45 1314.11 1532.05 1272.08 1542.22 1261.27 1553.52 1254.01 1564.15 1245.29Z" fill="#8FAADC"/></g></g></g></g></svg>